<svg width="655" height="279" viewBox="0 0 655 279" fill="none" xmlns="http://www.w3.org/2000/svg">
<path d="M75.0488 45V1.36364H86.8954V18.4091H102.577V1.36364H114.424V45H102.577V27.9545H86.8954V45H75.0488ZM120.049 45V1.36364H151.498V10.9091H131.895V18.4091H149.878V27.9545H131.895V35.4545H151.412V45H120.049ZM157.373 45V1.36364H169.22V35.4545H186.862V45H157.373ZM191.65 45V1.36364H203.497V35.4545H221.139V45H191.65ZM266.501 23.1818C266.501 28.0398 265.557 32.1378 263.667 35.4759C261.778 38.7997 259.229 41.321 256.018 43.0398C252.808 44.7443 249.229 45.5966 245.28 45.5966C241.302 45.5966 237.709 44.7372 234.498 43.0185C231.302 41.2855 228.76 38.7571 226.871 35.4332C224.996 32.0952 224.058 28.0114 224.058 23.1818C224.058 18.3239 224.996 14.233 226.871 10.9091C228.76 7.57102 231.302 5.04971 234.498 3.34517C237.709 1.62642 241.302 0.767044 245.28 0.767044C249.229 0.767044 252.808 1.62642 256.018 3.34517C259.229 5.04971 261.778 7.57102 263.667 10.9091C265.557 14.233 266.501 18.3239 266.501 23.1818ZM254.314 23.1818C254.314 20.5682 253.966 18.3665 253.27 16.5767C252.588 14.7727 251.572 13.4091 250.223 12.4858C248.888 11.5483 247.24 11.0795 245.28 11.0795C243.319 11.0795 241.665 11.5483 240.315 12.4858C238.98 13.4091 237.964 14.7727 237.268 16.5767C236.586 18.3665 236.246 20.5682 236.246 23.1818C236.246 25.7955 236.586 28.0043 237.268 29.8082C237.964 31.598 238.98 32.9616 240.315 33.8991C241.665 34.8224 243.319 35.2841 245.28 35.2841C247.24 35.2841 248.888 34.8224 250.223 33.8991C251.572 32.9616 252.588 31.598 253.27 29.8082C253.966 28.0043 254.314 25.7955 254.314 23.1818ZM282.742 10.9091V1.36364H320.669V10.9091H307.544V45H295.867V10.9091H282.742ZM325.127 45V1.36364H336.974V18.4091H352.655V1.36364H364.502V45H352.655V27.9545H336.974V45H325.127ZM370.127 45V1.36364H401.576V10.9091H381.974V18.4091H399.957V27.9545H381.974V35.4545H401.491V45H370.127ZM407.451 45V1.36364H426.286C429.525 1.36364 432.359 1.95312 434.788 3.1321C437.217 4.31108 439.106 6.00852 440.455 8.22443C441.805 10.4403 442.48 13.0966 442.48 16.1932C442.48 19.3182 441.784 21.9531 440.392 24.098C439.014 26.2429 437.075 27.8622 434.575 28.956C432.089 30.0497 429.184 30.5966 425.86 30.5966H414.61V21.392H423.474C424.866 21.392 426.052 21.2216 427.032 20.8807C428.026 20.5256 428.786 19.9645 429.312 19.1974C429.852 18.4304 430.122 17.429 430.122 16.1932C430.122 14.9432 429.852 13.9276 429.312 13.1463C428.786 12.3509 428.026 11.7685 427.032 11.3991C426.052 11.0156 424.866 10.8239 423.474 10.8239H419.298V45H407.451ZM433.019 24.9716L443.928 45H431.059L420.406 24.9716H433.019ZM447.529 45V1.36364H478.978V10.9091H459.376V18.4091H477.359V27.9545H459.376V35.4545H478.893V45H447.529ZM508.653 1.36364V45H496.807V1.36364H508.653ZM524.154 1.36364V6.47727C524.154 7.86932 523.87 9.26136 523.302 10.6534C522.748 12.0312 522.037 13.3168 521.171 14.5099C520.319 15.6889 519.438 16.6761 518.529 17.4716L513.671 15C514.268 13.9773 514.8 12.7912 515.269 11.4418C515.738 10.0923 515.972 8.4375 515.972 6.47727V1.36364H524.154ZM529.678 1.36364H544.422L554.564 26.0795H555.075L565.218 1.36364H579.962V45H568.371V19.7727H568.03L558.314 44.6591H551.325L541.61 19.6023H541.269V45H529.678V1.36364ZM35.1033 163H0.964142V74.2727H34.7568C43.8837 74.2727 51.7686 76.049 58.4116 79.6016C65.0835 83.1252 70.2246 88.2086 73.8349 94.8516C77.4741 101.466 79.2937 109.394 79.2937 118.636C79.2937 127.879 77.4885 135.821 73.8782 142.464C70.2679 149.079 65.1557 154.162 58.5416 157.714C51.9274 161.238 44.1147 163 35.1033 163ZM25.0522 142.551H34.2369C38.627 142.551 42.3673 141.844 45.4578 140.428C48.5771 139.013 50.9454 136.572 52.5629 133.107C54.2092 129.641 55.0323 124.817 55.0323 118.636C55.0323 112.455 54.1947 107.632 52.5195 104.166C50.8732 100.7 48.4471 98.2597 45.2411 96.8445C42.064 95.4292 38.1649 94.7216 33.5437 94.7216H25.0522V142.551ZM100.199 163V74.2727H164.145V93.6818H124.287V108.932H160.852V128.341H124.287V143.591H163.971V163H100.199ZM210.113 74.2727L228.309 136.832H229.002L247.198 74.2727H274.405L245.118 163H212.192L182.905 74.2727H210.113ZM301.224 163H275.23L304.517 74.2727H337.443L366.73 163H340.735L321.326 98.7074H320.633L301.224 163ZM296.372 127.994H345.241V146.017H296.372V127.994ZM461.805 74.2727V163H441.703L409.643 116.384H409.123V163H385.035V74.2727H405.484L437.024 120.716H437.717V74.2727H461.805ZM530.789 102C530.558 99.1117 529.475 96.8589 527.54 95.2415C525.633 93.624 522.731 92.8153 518.832 92.8153C516.348 92.8153 514.311 93.1186 512.723 93.7251C511.163 94.3028 510.008 95.0971 509.257 96.1079C508.506 97.1188 508.116 98.2741 508.087 99.5739C508.03 100.643 508.217 101.61 508.65 102.477C509.113 103.314 509.835 104.08 510.817 104.773C511.799 105.437 513.055 106.044 514.586 106.592C516.117 107.141 517.936 107.632 520.045 108.065L527.323 109.625C532.233 110.665 536.436 112.037 539.93 113.741C543.425 115.445 546.284 117.452 548.508 119.763C550.732 122.045 552.364 124.615 553.404 127.474C554.473 130.334 555.021 133.453 555.05 136.832C555.021 142.667 553.563 147.606 550.675 151.649C547.786 155.693 543.656 158.769 538.284 160.877C532.941 162.986 526.514 164.04 519.005 164.04C511.293 164.04 504.564 162.899 498.816 160.617C493.097 158.335 488.649 154.826 485.472 150.089C482.324 145.324 480.735 139.23 480.707 131.807H503.582C503.726 134.522 504.405 136.804 505.618 138.652C506.831 140.5 508.535 141.901 510.73 142.854C512.954 143.808 515.597 144.284 518.658 144.284C521.229 144.284 523.381 143.966 525.114 143.331C526.847 142.696 528.161 141.815 529.056 140.688C529.951 139.562 530.414 138.277 530.442 136.832C530.414 135.475 529.966 134.291 529.099 133.28C528.262 132.24 526.875 131.316 524.94 130.507C523.005 129.67 520.391 128.89 517.099 128.168L508.261 126.261C500.405 124.557 494.209 121.712 489.675 117.727C485.169 113.712 482.931 108.239 482.959 101.307C482.931 95.6747 484.432 90.7502 487.465 86.5334C490.527 82.2876 494.758 78.9806 500.159 76.6122C505.589 74.2438 511.813 73.0597 518.832 73.0597C525.994 73.0597 532.19 74.2583 537.418 76.6555C542.645 79.0528 546.674 82.4321 549.505 86.7933C552.364 91.1257 553.808 96.1946 553.837 102H530.789ZM573.973 163V74.2727H598.061V108.932H629.948V74.2727H654.036V163H629.948V128.341H598.061V163H573.973ZM82.4258 279V191.727H120.096C126.574 191.727 132.241 192.906 137.099 195.264C141.957 197.622 145.735 201.017 148.434 205.449C151.133 209.881 152.483 215.193 152.483 221.386C152.483 227.636 151.091 232.906 148.306 237.196C145.551 241.486 141.673 244.724 136.673 246.912C131.701 249.099 125.892 250.193 119.244 250.193H96.744V231.784H114.471C117.255 231.784 119.627 231.443 121.588 230.761C123.576 230.051 125.096 228.929 126.147 227.395C127.227 225.861 127.767 223.858 127.767 221.386C127.767 218.886 127.227 216.855 126.147 215.293C125.096 213.702 123.576 212.537 121.588 211.798C119.627 211.031 117.255 210.648 114.471 210.648H106.119V279H82.4258ZM133.562 238.943L155.38 279H129.642L108.335 238.943H133.562ZM194.852 279H169.284L198.091 191.727H230.477L259.284 279H233.716L214.625 215.761H213.943L194.852 279ZM190.08 244.568H238.148V262.295H190.08V244.568ZM289.254 279L263.515 191.727H289.935L301.867 245.42H302.549L316.697 191.727H337.492L351.64 245.591H352.322L364.254 191.727H390.674L364.935 279H342.265L327.435 230.25H326.754L311.924 279H289.254ZM420.42 279H394.851L423.658 191.727H456.045L484.851 279H459.283L440.192 215.761H439.511L420.42 279ZM415.647 244.568H463.715V262.295H415.647V244.568ZM489.455 210.818V191.727H565.307V210.818H539.057V279H515.705V210.818H489.455Z" fill="black"/>
</svg>
